<svg xmlns="http://www.w3.org/2000/svg" viewBox="0 0 300 50" width="300" height="50">
  <!-- Cloud Icon with inner chart bars -->
  <g transform="translate(68, 9)">
    <path d="M 16 6 C 11.5 6 8.2 9.5 8.2 14 C 5 14 3.5 16.5 3.5 19.5 C 3.5 22.5 6 25 9 25 L 23 25 C 26.5 25 28.5 22.5 28.5 19.5 C 28.5 16.5 26.5 14.5 24 14.2 C 24 9.5 20.5 6 16 6 Z" fill="#312D46" />
    <rect x="10" y="15.5" width="2.5" height="5.5" rx="0.5" fill="#ffffff" />
    <rect x="14.75" y="11.5" width="2.5" height="9.5" rx="0.5" fill="#ffffff" />
    <rect x="19.5" y="13.5" width="2.5" height="7.5" rx="0.5" fill="#ffffff" />
  </g>
  <text x="110" y="32" font-family="system-ui, -apple-system, sans-serif" font-size="22" font-weight="bold" font-style="italic" fill="#312D46">Statistics</text>
</svg>
